<svg id="Capa_1" enable-background="new 0 0 512 512" height="512" viewBox="0 0 512 512" width="512" xmlns="http://www.w3.org/2000/svg"><g><path d="m444.608 50.25h-307.608c-29.868 0-55.245 19.538-64.061 46.5h302.061c53.702 0 97.393 43.69 97.393 97.392v185.089c23.333-10.605 39.607-34.117 39.607-61.373v-200.216c0-37.16-30.231-67.392-67.392-67.392z"/><path d="m442.393 305.25h-442.393v89.108c0 37.16 30.232 67.392 67.393 67.392h307.607c37.16 0 67.393-30.232 67.393-67.392zm-72.668 46v30h-55.058v-30zm-297.057 0h132v30h-132z"/><path d="m442.393 203.25v-9.108c0-37.16-30.232-67.392-67.393-67.392h-307.607c-37.161 0-67.393 30.232-67.393 67.392v9.108z"/><path d="m0 233.25h442.393v42h-442.393z"/></g></svg>